<svg xmlns="http://www.w3.org/2000/svg" viewBox="0 0 5 5" height="100" width="100">
                        <rect x="0" y="0" height="1" width="1" fill="#B870B1"/>
                    <rect x="4" y="0" height="1" width="1" fill="#B870B1"/>
                    <rect x="1" y="0" height="1" width="1" fill="#B870B1"/>
                    <rect x="3" y="0" height="1" width="1" fill="#B870B1"/>
                    <rect x="2" y="0" height="1" width="1" fill="#E54202"/>
                                <rect x="0" y="1" height="1" width="1" fill="#B870B1"/>
                    <rect x="4" y="1" height="1" width="1" fill="#B870B1"/>
                    <rect x="1" y="1" height="1" width="1" fill="#B870B1"/>
                    <rect x="3" y="1" height="1" width="1" fill="#B870B1"/>
                    <rect x="2" y="1" height="1" width="1" fill="#E54202"/>
                                <rect x="0" y="2" height="1" width="1" fill="#E54202"/>
                    <rect x="4" y="2" height="1" width="1" fill="#E54202"/>
                    <rect x="1" y="2" height="1" width="1" fill="#E54202"/>
                    <rect x="3" y="2" height="1" width="1" fill="#E54202"/>
                    <rect x="2" y="2" height="1" width="1" fill="#B870B1"/>
                                <rect x="0" y="3" height="1" width="1" fill="#B870B1"/>
                    <rect x="4" y="3" height="1" width="1" fill="#B870B1"/>
                    <rect x="1" y="3" height="1" width="1" fill="#B870B1"/>
                    <rect x="3" y="3" height="1" width="1" fill="#B870B1"/>
                    <rect x="2" y="3" height="1" width="1" fill="#E54202"/>
                                <rect x="0" y="4" height="1" width="1" fill="#E54202"/>
                    <rect x="4" y="4" height="1" width="1" fill="#E54202"/>
                    <rect x="1" y="4" height="1" width="1" fill="#B870B1"/>
                    <rect x="3" y="4" height="1" width="1" fill="#B870B1"/>
                    <rect x="2" y="4" height="1" width="1" fill="#E54202"/>
            </svg>
